<svg width="40" height="57" viewBox="0 0 40 57" fill="none" xmlns="http://www.w3.org/2000/svg">
<path d="M3.69336 28.4204C3.69336 32.816 5.4766 36.7892 8.33916 39.683C8.54252 39.8864 8.76151 39.8864 8.93358 39.6674L9.63749 38.8696C9.8252 38.6662 9.80955 38.4785 9.62184 38.2752C7.15034 35.7255 5.60174 32.2372 5.60174 28.4204C5.60174 20.7244 11.9839 14.3266 19.7112 14.3266C27.4386 14.3266 33.8207 20.7244 33.8207 28.4204C33.8207 32.2372 32.2721 35.7255 29.8006 38.2752C29.6129 38.4785 29.5972 38.6662 29.785 38.8696L30.4889 39.6674C30.6609 39.8864 30.8799 39.8864 31.0833 39.683C33.9458 36.8048 35.7291 32.816 35.7291 28.4204C35.7291 19.645 28.5492 12.4026 19.7112 12.4026C10.8732 12.4026 3.69336 19.645 3.69336 28.4204ZM8.24531 28.4204C8.24531 31.4551 9.41849 34.1925 11.3582 36.2573C11.5615 36.4763 11.7805 36.4607 11.9682 36.2573L12.6721 35.4752C12.8755 35.2718 12.8442 35.0841 12.6565 34.8651C11.1079 33.1445 10.1693 30.892 10.1693 28.4204C10.1693 23.1959 14.471 18.8786 19.7112 18.8786C24.9514 18.8786 29.2531 23.1959 29.2531 28.4204C29.2531 30.892 28.3146 33.1445 26.766 34.8495C26.5782 35.0685 26.547 35.2562 26.7503 35.4595L27.4699 36.2573C27.6419 36.4607 27.8766 36.4763 28.0643 36.2573C29.9883 34.1925 31.1771 31.4551 31.1771 28.4204C31.1771 22.1322 26.0308 16.9545 19.7112 16.9545C13.3917 16.9545 8.24531 22.1322 8.24531 28.4204ZM12.7973 28.4204C12.7973 30.0785 13.376 31.5959 14.3771 32.8003C14.5492 33.0193 14.7682 33.0193 14.9716 32.8003L15.7068 32.0338C15.8945 31.8461 15.8788 31.6428 15.738 31.4238C15.0967 30.5947 14.7213 29.5311 14.7213 28.4204C14.7213 25.6987 16.9894 23.4305 19.7112 23.4305C22.433 23.4305 24.7012 25.6987 24.7012 28.4204C24.7012 29.5311 24.3257 30.5947 23.6844 31.4238C23.528 31.6428 23.5123 31.8461 23.7157 32.0495L24.4509 32.8003C24.6386 33.0193 24.8732 33.0193 25.0453 32.8003C26.0464 31.5959 26.6252 30.0785 26.6252 28.4204C26.6252 24.635 23.5123 21.5065 19.7112 21.5065C15.9101 21.5065 12.7973 24.635 12.7973 28.4204ZM9.59056 42.6238C9.12129 43.1556 9.40285 43.9065 10.138 43.9065H29.2531C29.9883 43.9065 30.2699 43.14 29.8162 42.6238L20.3682 31.94C20.0084 31.5333 19.3827 31.5333 19.023 31.94L9.59056 42.6238Z" fill="#908D8B"/>
</svg>
