<svg width="55" height="57" viewBox="0 0 55 57" fill="none" xmlns="http://www.w3.org/2000/svg">
<g clip-path="url(#clip0_46_114)">
<path d="M22.3704 42.2564C23.7497 42.2564 24.9167 41.1955 24.9167 39.2327V29.0474C25.1113 29.7901 25.6594 30.4267 26.6143 30.9925L44.633 41.6022C45.3403 42.0265 45.9415 42.2564 46.6665 42.2564C48.0458 42.2564 49.2129 41.1955 49.2129 39.2327V17.5006C49.2129 15.5378 48.0458 14.4768 46.6665 14.4768C45.9415 14.4768 45.358 14.7067 44.633 15.1311L26.6143 25.7407C25.6417 26.3066 25.1113 26.9432 24.9167 27.6858V17.5006C24.9167 15.5378 23.7497 14.4768 22.3704 14.4768C21.6454 14.4768 21.0619 14.7067 20.3369 15.1311L2.31819 25.7407C1.06271 26.4834 0.532227 27.3499 0.532227 28.3578C0.532227 29.3834 1.06271 30.2498 2.31819 30.9925L20.3369 41.6022C21.0442 42.0265 21.6454 42.2564 22.3704 42.2564Z" fill="white"/>
</g>
<defs>
<clipPath id="clip0_46_114">
<rect width="54.3214" height="55.7143" fill="white" transform="translate(0.0722656 0.714233)"/>
</clipPath>
</defs>
</svg>
