<svg width="55" height="57" viewBox="0 0 55 57" fill="none" xmlns="http://www.w3.org/2000/svg">
<path d="M7.26995 42.2564C7.99494 42.2564 8.59616 42.0265 9.30347 41.6022L27.3222 30.9925C28.2947 30.4267 28.8252 29.7901 29.0197 29.0474V39.2327C29.0197 41.1955 30.1868 42.2564 31.5661 42.2564C32.2911 42.2564 32.8923 42.0265 33.5996 41.6022L51.636 30.9925C52.8738 30.2498 53.4219 29.3834 53.4219 28.3578C53.4219 27.3499 52.8738 26.4834 51.636 25.7407L33.5996 15.1311C32.8923 14.7067 32.2911 14.4768 31.5661 14.4768C30.1868 14.4768 29.0197 15.5378 29.0197 17.5006V27.6858C28.8252 26.9432 28.2947 26.3066 27.3222 25.7407L9.30347 15.1311C8.57847 14.7067 7.99494 14.4768 7.26995 14.4768C5.89069 14.4768 4.72363 15.5378 4.72363 17.5006V39.2327C4.72363 41.1955 5.89069 42.2564 7.26995 42.2564Z" fill="white"/>
</svg>
