<svg width="47" height="57" viewBox="0 0 47 57" fill="none" xmlns="http://www.w3.org/2000/svg">
<path d="M10.3494 50.4749H16.2418C18.4902 50.4749 19.6791 49.2861 19.6791 47.0118V11.8123C19.6791 9.46045 18.4902 8.375 16.2418 8.375H10.3494C8.10093 8.375 6.91211 9.56383 6.91211 11.8123V47.0118C6.91211 49.2861 8.10093 50.4749 10.3494 50.4749ZM29.138 50.4749H35.0046C37.2788 50.4749 38.4418 49.2861 38.4418 47.0118V11.8123C38.4418 9.46045 37.2788 8.375 35.0046 8.375H29.138C26.8637 8.375 25.6749 9.56383 25.6749 11.8123V47.0118C25.6749 49.2861 26.8637 50.4749 29.138 50.4749Z" fill="white"/>
</svg>
